<?xml version="1.0" encoding="iso-8859-1"?>
<!-- Generator: Adobe Illustrator 16.0.0, SVG Export Plug-In . SVG Version: 6.00 Build 0)  -->
<!DOCTYPE svg PUBLIC "-//W3C//DTD SVG 1.1//EN" "http://www.w3.org/Graphics/SVG/1.1/DTD/svg11.dtd">
<svg version="1.1" id="Layer_1" xmlns="http://www.w3.org/2000/svg" xmlns:xlink="http://www.w3.org/1999/xlink" x="0px" y="0px"
	 width="42px" height="42px" viewBox="0 0 42 42" style="enable-background:new 0 0 42 42;" xml:space="preserve">
<g>
	<g>
		<path style="fill:#415767;" d="M7.725,14.827l13.525,7.159l7.623-0.979l-9.794-5.724l-0.201-8.512l4.025-3.356l18.605,12.712
			C39.294,6.877,30.974,0,21.045,0C9.421,0,0,9.421,0,21.044c0,11.622,9.421,21.044,21.045,21.044c0.035,0,0.071-0.001,0.107-0.002
			L6.738,33.724L7.725,14.827z"/>
		<path style="fill:#25313B;" d="M42.087,21.044c0-1.693-0.201-3.34-0.578-4.917L22.903,3.415l-4.025,3.356l0.201,8.512l9.794,5.724
			l-7.623,0.979L7.725,14.827L6.738,33.724l14.414,8.362C32.725,42.027,42.087,32.629,42.087,21.044z"/>
	</g>
	<g>
		<path style="fill:#F5F6F6;" d="M20.4,10.452c-0.771-2.71,0.318-5.508,2.503-7.037c-0.7-0.039-1.416,0.032-2.128,0.235
			c-3.424,0.972-5.41,4.533-4.438,7.955c0.973,3.423,4.534,5.409,7.958,4.438c0.712-0.202,1.359-0.518,1.934-0.919
			C23.564,14.972,21.17,13.163,20.4,10.452z"/>
	</g>
	<g>
		<rect x="8.848" y="21.688" style="fill:#FFFFFF;" width="24.502" height="5.564"/>
		<path style="fill:#CE8936;" d="M32.318,33.138c0,0.324,0.263,0.586,0.585,0.586h2.788c0.324,0,0.587-0.262,0.587-0.586v-4.174
			c0-0.322-0.263-0.141-0.587-0.141h-2.788c-0.322,0-0.585-0.182-0.585,0.141V33.138z"/>
		<path style="fill:#CE8936;" d="M6.601,33.138c0,0.324,0.263,0.586,0.587,0.586h2.788c0.322,0,0.585-0.262,0.585-0.586v-4.174
			c0-0.322-0.263-0.141-0.585-0.141H7.188c-0.324,0-0.587-0.182-0.587,0.141V33.138z"/>
		<path style="fill:#CE8936;" d="M36.26,29.111c0,0.384-0.312,0.694-0.695,0.694H7.314c-0.386,0-0.697-0.311-0.697-0.694v-2.588
			c0-0.385,0.312-0.696,0.697-0.696h28.25c0.384,0,0.695,0.312,0.695,0.696V29.111z"/>
		<path style="fill:#CE8936;" d="M8.848,29.276c0,0.323-0.261,0.586-0.585,0.586H7.188c-0.324,0-0.587-0.263-0.587-0.586V16.753
			c0-0.322,0.263-0.585,0.587-0.585h1.075c0.324,0,0.585,0.263,0.585,0.585V29.276z"/>
		<path style="fill:#85CACA;" d="M14.979,22.114c0,0.557-0.45,1.008-1.008,1.008H9.855c-0.555,0-1.008-0.451-1.008-1.008v-0.853
			c0-0.557,0.453-1.008,1.008-1.008h4.116c0.558,0,1.008,0.451,1.008,1.008V22.114z"/>
		<circle style="fill:#CE8936;" cx="7.724" cy="15.882" r="1.056"/>
		<path style="fill:#B37831;" d="M35.865,27.728c0,0.799-0.345,1.445-0.769,1.445H7.924c-0.426,0-0.769-0.646-0.769-1.445l0,0
			c0-0.798,0.343-1.445,0.769-1.445h27.173C35.521,26.282,35.865,26.93,35.865,27.728L35.865,27.728z"/>
		<path style="fill:#E5F4F3;" d="M36.356,26.936c0,0.757-0.692,1.37-1.544,1.37H16.458c-0.854,0-1.546-0.613-1.546-1.37v-4.969
			c0-0.757,0.692-1.371,1.546-1.371h18.354c0.852,0,1.544,0.614,1.544,1.371V26.936z"/>
		<path style="fill:#CAE2E0;" d="M35.865,22.266c0,0.49-0.408,0.888-0.912,0.888h-18.62c-0.502,0-0.91-0.397-0.91-0.888v-0.371
			c0-0.49,0.408-0.888,0.91-0.888h18.62c0.504,0,0.912,0.397,0.912,0.888V22.266z"/>
	</g>
</g>
</svg>
