<?xml version="1.0" encoding="iso-8859-1"?>
<!-- Generator: Adobe Illustrator 16.0.0, SVG Export Plug-In . SVG Version: 6.00 Build 0)  -->
<!DOCTYPE svg PUBLIC "-//W3C//DTD SVG 1.1//EN" "http://www.w3.org/Graphics/SVG/1.1/DTD/svg11.dtd">
<svg version="1.1" id="Layer_1" xmlns="http://www.w3.org/2000/svg" xmlns:xlink="http://www.w3.org/1999/xlink" x="0px" y="0px"
	 width="42px" height="42px" viewBox="0 0 42 42" style="enable-background:new 0 0 42 42;" xml:space="preserve">
<g>
	<g>
		<path style="fill:#E5F4F3;" d="M7.855,29.276l3.146,1.862l0.561-1.862l6.625,3.409l1.001-9.133l-7.602-6.688l0.387-1.43
			l-0.727-0.907l0.905-0.843l2.214-0.572l1.59-0.678l0.553-0.893l0.824-0.328l0.466,0.757l1.481,0.434l0.086,0.53l0.941,0.637
			l5.014,4.753l-1.707-2.13l1.001-1.832l-1.06-0.667l1.132-1.797l-0.59-1.005l1.769-0.959L25.44,9.468l1.57-0.427l1.715,0.5
			l-0.786-1.494l1.143,0.495l1.965,1.32l1.725-1.081l1.525,2.061l1.17,1.62l6.429,6.437C40.843,8.288,31.889,0,21,0
			C9.401,0,0,9.401,0,21c0,3.875,1.051,7.504,2.881,10.621c1.012,1.723,2.262,3.285,3.705,4.648C10.346,39.821,15.417,42,21,42
			c0.465,0,0.926-0.017,1.382-0.047l-10.714-5.688L7.855,29.276z"/>
		<path style="fill:#ACD5D3;" d="M39.101,31.651C40.942,28.527,42,24.888,42,21c0-0.709-0.035-1.41-0.104-2.101l-6.429-6.437
			l-1.17-1.62l-1.525-2.061l-1.725,1.081l-1.965-1.32l-1.143-0.495l0.786,1.494l-1.715-0.5l-1.57,0.427l0.428,0.467L24.1,10.894
			l0.59,1.005l-1.132,1.797l1.06,0.667l-1.001,1.832l1.707,2.13l-5.014-4.753l-0.941-0.637l-0.086-0.53L17.8,11.971l-0.466-0.757
			l-0.824,0.328l-0.553,0.893l-1.59,0.678l-2.214,0.572l-0.905,0.843l0.727,0.907l-0.387,1.43l7.602,6.688l-1.001,9.133
			l-6.625-3.409l-0.561,1.862l-3.146-1.862l3.813,6.988l10.714,5.688c5.061-0.329,9.632-2.449,13.086-5.734
			C36.88,34.876,38.105,33.34,39.101,31.651z"/>
	</g>
	<g>
		<g>
			<path style="fill:#824949;" d="M23.563,29.567l-3.265-0.183c0.027-0.121,0.504-3.07,2.018-6.414
				c2.138-4.71,4.429-7.866,6.914-9.565l0.739,1.081c-2.443,0.936-4.063,4.284-5.324,8.168
				C23.529,26.096,23.575,29.511,23.563,29.567z"/>
		</g>
		<path style="fill:#B9D17D;" d="M25.942,12.143c0,0-1.7,0.361-2.385,1.553c0,0,0.299-2.331,2.358-3.227
			c0,0-0.731-0.244-1.816,0.425c0,0,1.11-1.349,2.952-1.316c0,0-0.701-0.393-1.611-0.11c0,0,1.281-1.551,3.087-0.348
			c0,0,0.454-0.746-0.588-1.072c0,0,1.021-0.335,2.244,0.812c0,0,1.184-0.626,2.588-0.077c0,0-0.806,0.563-1.007,1.198
			c0,0,2.723-0.082,3.702,2.482c0,0-0.841-1.015-2.072-0.585c0,0,1.605,1.045,1.552,3.515c0,0-0.225-1.261-1.629-1.402
			c0,0,1.146,0.691-0.108,3.084c0,0-0.919-2.09-1.62-2.378c0,0,0.409,3.281-1.598,4.115c0,0,1.014-2.121-0.531-4.242
			c0,0-1.771-0.832-2.971,1.179c0,0-0.248-1.307,0.668-1.924c0,0-2.109,0.17-3.541,2.372C23.616,16.194,24.021,13.441,25.942,12.143
			z"/>
		<g>
			<path style="fill:#824949;" d="M17.723,28.934l2.563,0.41c0-0.1,0.129-2.468-0.483-5.318c-0.86-4.016-2.104-6.851-3.746-8.59
				l-0.755,0.714c1.737,1.139,2.428,4.01,2.749,7.238C18.336,26.243,17.723,28.887,17.723,28.934z"/>
		</g>
		<path style="fill:#B9D17D;" d="M18.814,14.515c0,0,1.341,0.33,1.854,1.293c0,0-0.178-1.857-1.791-2.621
			c0,0,0.586-0.175,1.431,0.384c0,0-0.847-1.099-2.311-1.12c0,0,0.567-0.293,1.283-0.046c0,0-0.978-1.264-2.441-0.355
			c0,0-0.343-0.604,0.494-0.836c0,0-0.803-0.292-1.802,0.587c0,0-0.923-0.527-2.053-0.127c0,0,0.627,0.468,0.769,0.977
			c0,0-2.158-0.134-3,1.877c0,0,0.693-0.785,1.659-0.413c0,0-1.301,0.79-1.319,2.75c0,0,0.209-0.995,1.328-1.072
			c0,0-0.927,0.521,0.007,2.451c0,0,0.783-1.635,1.346-1.846c0,0-0.408,2.594,1.164,3.306c0,0-0.75-1.709,0.53-3.354
			c0,0,1.426-0.616,2.328,1.011c0,0,0.229-1.03-0.481-1.544c0,0,1.668,0.189,2.749,1.972C20.558,17.79,20.306,15.595,18.814,14.515z
			"/>
		<path style="fill:#F0D784;" d="M32.939,32.187c-2.646-3.002-6.52-4.897-10.837-4.897c-4.316,0-8.19,1.896-10.835,4.897H32.939z"/>
	</g>
	<g>
		<path style="fill:#2DA5D4;" d="M9.925,33.476c0.237,0.802,0.977,1.385,1.854,1.385c0.877,0,1.617-0.583,1.854-1.385
			c0.237,0.802,0.977,1.385,1.854,1.385c0.876,0,1.617-0.583,1.853-1.385c0.236,0.802,0.976,1.385,1.853,1.385
			s1.617-0.583,1.854-1.385c0.236,0.802,0.976,1.385,1.854,1.385c0.877,0,1.617-0.583,1.853-1.385
			c0.002,0.008,0.005,0.013,0.007,0.02c0.003-0.007,0.005-0.012,0.007-0.02c0.236,0.8,0.974,1.383,1.847,1.385
			c0.019,0,0.036-0.002,0.056-0.002c0.025,0,0.051-0.002,0.077-0.003c0.291-0.021,0.565-0.106,0.808-0.242v0.006
			c0.439-0.243,0.775-0.652,0.921-1.144c0.234,0.802,0.976,1.385,1.852,1.385c0.877,0,1.618-0.583,1.854-1.385
			c0.103,0.348,0.3,0.652,0.562,0.889c1.145-1.089,2.14-2.335,2.945-3.704c-0.006,0-0.011,0-0.017,0
			c-0.876,0-1.617-0.583-1.853-1.384c-0.236,0.801-0.977,1.384-1.854,1.384s-1.617-0.583-1.854-1.384
			c-0.236,0.801-0.977,1.384-1.854,1.384c-0.876,0-1.617-0.583-1.853-1.384c-0.146,0.492-0.48,0.899-0.92,1.145v-0.007
			c-0.242,0.135-0.517,0.221-0.809,0.241c-0.025,0.002-0.051,0.003-0.076,0.003c-0.019,0.002-0.035,0.002-0.055,0.002
			c-0.875-0.002-1.611-0.585-1.848-1.384c-0.002,0.007-0.005,0.013-0.007,0.019c-0.002-0.006-0.005-0.012-0.006-0.019
			c-0.236,0.801-0.977,1.384-1.854,1.384c-0.877,0-1.617-0.583-1.854-1.384C18.74,30.077,18,30.66,17.123,30.66
			c-0.877,0-1.617-0.583-1.854-1.384c-0.235,0.801-0.976,1.384-1.853,1.384c-0.876,0-1.617-0.583-1.853-1.384
			c-0.237,0.801-0.977,1.384-1.854,1.384c-0.877,0-1.617-0.583-1.854-1.384c-0.208,0.703-0.805,1.239-1.543,1.358
			c0.82,1.397,1.834,2.666,3.005,3.771C9.601,34.165,9.818,33.844,9.925,33.476z"/>
		<path style="fill:#2992BB;" d="M32.741,34.364c-0.262-0.236-0.459-0.541-0.562-0.889c-0.235,0.802-0.977,1.385-1.854,1.385
			c-0.876,0-1.617-0.583-1.852-1.385c-0.146,0.491-0.481,0.9-0.921,1.144v-0.006c-0.242,0.136-0.517,0.222-0.808,0.242
			c-0.026,0.001-0.052,0.003-0.077,0.003c-0.02,0-0.037,0.002-0.056,0.002c-0.873-0.002-1.61-0.585-1.847-1.385
			c-0.002,0.008-0.004,0.013-0.007,0.02c-0.002-0.007-0.005-0.012-0.007-0.02c-0.235,0.802-0.976,1.385-1.853,1.385
			c-0.878,0-1.618-0.583-1.854-1.385c-0.237,0.802-0.977,1.385-1.854,1.385s-1.617-0.583-1.853-1.385
			c-0.235,0.802-0.977,1.385-1.853,1.385c-0.877,0-1.617-0.583-1.854-1.385c-0.236,0.802-0.977,1.385-1.854,1.385
			c-0.877,0-1.617-0.583-1.854-1.385c-0.107,0.368-0.324,0.689-0.608,0.93c3.049,2.881,7.164,4.647,11.69,4.647
			C25.557,39.053,29.687,37.27,32.741,34.364z"/>
	</g>
</g>
</svg>
