<?xml version="1.0" encoding="iso-8859-1"?>
<!-- Generator: Adobe Illustrator 16.0.0, SVG Export Plug-In . SVG Version: 6.00 Build 0)  -->
<!DOCTYPE svg PUBLIC "-//W3C//DTD SVG 1.1//EN" "http://www.w3.org/Graphics/SVG/1.1/DTD/svg11.dtd">
<svg version="1.1" id="Layer_1" xmlns="http://www.w3.org/2000/svg" xmlns:xlink="http://www.w3.org/1999/xlink" x="0px" y="0px"
	 width="42px" height="42px" viewBox="0 0 42 42" style="enable-background:new 0 0 42 42;" xml:space="preserve">
<g>
	<path style="fill:#415767;" d="M21.063,0C9.431,0,0,9.431,0,21.063c0,11.632,9.431,21.063,21.063,21.063
		c2.474,0,4.848-0.428,7.052-1.211V1.211C25.911,0.428,23.537,0,21.063,0z"/>
	<path style="fill:#703F3F;" d="M30.828,16.972h0.026c0.06-4.029,3.348-7.273,7.355-7.273c0.204,0,0.406,0.011,0.607,0.027
		c-2.502-3.908-6.259-6.937-10.702-8.515v39.705c4.76-1.691,8.731-5.045,11.217-9.363h-8.504V16.972z"/>
	<path style="fill:#384B59;" d="M38.738,15.792l2.071-2.077c-0.344-0.923-0.751-1.817-1.216-2.674
		c-0.28-0.063-0.565-0.111-0.855-0.137V15.792z"/>
	<path style="fill:#384B59;" d="M33.525,13.039c-0.894,1.024-1.457,2.341-1.521,3.803h5.313L33.525,13.039z"/>
	<path style="fill:#384B59;" d="M37.707,15.792v-4.888c-1.315,0.113-2.512,0.629-3.462,1.427L37.707,15.792z"/>
	<path style="fill:#384B59;" d="M41.703,16.842c-0.142-0.699-0.319-1.385-0.529-2.056l-2.063,2.056H41.703z"/>
	<path style="fill:#384B59;" d="M38.834,23.715h3.127c0.109-0.867,0.166-1.752,0.166-2.651c0-1.002-0.069-1.986-0.205-2.951h-3.088
		V23.715z"/>
	<rect x="31.974" y="18.112" style="fill:#384B59;" width="5.607" height="5.603"/>
	<path style="fill:#384B59;" d="M38.834,30.58h1.024c0.885-1.742,1.534-3.625,1.905-5.607h-2.93V30.58z"/>
	<rect x="31.974" y="24.973" style="fill:#384B59;" width="5.607" height="5.607"/>
	<path style="fill:#F5F6F6;" d="M38.834,30.58v-5.607h2.93c0.078-0.414,0.145-0.834,0.197-1.258h-3.127v-5.603h3.088
		c-0.06-0.428-0.134-0.851-0.219-1.271h-2.592l2.063-2.056c-0.112-0.361-0.232-0.718-0.364-1.07l-2.071,2.077v-4.888
		c0.29,0.025,0.575,0.073,0.855,0.137c-0.244-0.448-0.502-0.887-0.776-1.315c-0.201-0.016-0.403-0.027-0.607-0.027
		c-4.008,0-7.296,3.244-7.355,7.273h-0.026v14.581h8.504c0.184-0.318,0.359-0.643,0.526-0.973H38.834z M33.525,13.039l3.791,3.803
		h-5.313C32.068,15.38,32.632,14.063,33.525,13.039z M37.581,30.58h-5.607v-5.607h5.607V30.58z M37.581,23.715h-5.607v-5.603h5.607
		V23.715z M37.707,15.792l-3.462-3.461c0.95-0.798,2.146-1.314,3.462-1.427V15.792z"/>
	<path style="fill:#703F3F;" d="M24.76,12.519c0,0.711,1.015,1.29,2.265,1.29h1.361c1.251,0,2.264-0.578,2.264-1.29v-0.711
		c0-0.713-1.013-1.29-2.264-1.29h-1.361c-1.25,0-2.265,0.577-2.265,1.29V12.519z"/>
	<path style="fill:#703F3F;" d="M24.76,33.689c0,0.713,0.768,1.289,1.714,1.289h1.03c0.947,0,1.715-0.576,1.715-1.289v-0.711
		c0-0.713-0.768-1.291-1.715-1.291h-1.03c-0.946,0-1.714,0.578-1.714,1.291V33.689z"/>
	<path style="fill:#ECA757;" d="M24.772,2.556h-0.509h-5.451h-1.458c-0.664,0-1.202,0.538-1.202,1.203v0.933v33.326v0.244
		c0,0.664,0.538,1.201,1.202,1.201h0.51h5.45h1.458c0.664,0,1.203-0.537,1.203-1.201v-0.719V4.001V3.759
		C25.976,3.094,25.437,2.556,24.772,2.556z"/>
	<g>
		<path style="fill:#FFF5D0;" d="M18.184,4.354h1.86V6.46h2.032V4.354h1.867v6.018h-1.867V7.938h-2.032v2.434h-1.86V4.354z"/>
		<path style="fill:#FFF5D0;" d="M17.946,14.251c0-0.981,0.273-1.747,0.821-2.294c0.547-0.546,1.31-0.82,2.286-0.82
			c1.002,0,1.773,0.269,2.314,0.807c0.543,0.537,0.813,1.291,0.813,2.26c0,0.703-0.118,1.28-0.355,1.73
			c-0.236,0.45-0.578,0.8-1.026,1.05c-0.446,0.251-1.005,0.376-1.673,0.376c-0.678,0-1.239-0.108-1.685-0.324
			c-0.444-0.216-0.805-0.558-1.081-1.026C18.084,15.541,17.946,14.955,17.946,14.251z M19.806,14.26c0,0.607,0.113,1.044,0.339,1.31
			s0.532,0.398,0.921,0.398c0.4,0,0.71-0.13,0.928-0.39c0.219-0.26,0.328-0.726,0.328-1.399c0-0.566-0.113-0.98-0.342-1.242
			c-0.229-0.261-0.539-0.392-0.93-0.392c-0.375,0-0.677,0.132-0.903,0.398C19.919,13.208,19.806,13.647,19.806,14.26z"/>
		<path style="fill:#FFF5D0;" d="M18.237,18.054h5.653v1.487h-1.897v4.531h-1.859v-4.531h-1.896V18.054z"/>
		<path style="fill:#FFF5D0;" d="M18.526,24.666h4.984v1.285h-3.12v0.957h2.895v1.227h-2.895v1.186h3.21v1.363h-5.074V24.666z"/>
		<path style="fill:#FFF5D0;" d="M18.684,31.686h1.859v4.537h2.901v1.48h-4.761V31.686z"/>
	</g>
	<g>
		<path style="fill:#F5F6F6;" d="M8.185,21.063c0-2.951,1.896-5.459,4.536-6.375c-0.692-0.24-1.438-0.373-2.212-0.373
			c-3.726,0-6.748,3.021-6.748,6.748c0,3.726,3.022,6.747,6.748,6.747c0.774,0,1.52-0.133,2.212-0.373
			C10.081,26.521,8.185,24.016,8.185,21.063z"/>
	</g>
</g>
</svg>
