<?xml version="1.0" encoding="iso-8859-1"?>
<!-- Generator: Adobe Illustrator 19.0.0, SVG Export Plug-In . SVG Version: 6.00 Build 0)  -->
<svg version="1.1" id="Layer_1" xmlns="http://www.w3.org/2000/svg" xmlns:xlink="http://www.w3.org/1999/xlink" x="0px" y="0px"
	 viewBox="0 0 512 512" style="enable-background:new 0 0 512 512;" xml:space="preserve">
<circle style="fill:#FFEDB5;" cx="256" cy="256" r="256"/>
<path style="fill:#FEE187;" d="M508.669,297.358L271.92,57.487L261.46,79.731l-17.542,256.893l-45.032,76.409l93.844,96.334
	C403.225,493.489,490.915,407.057,508.669,297.358z"/>
<path style="fill:#D48B07;" d="M311.227,317.795c-1.169-12.124,12.602-20.564,12.602-32.797c0-31.218-30.368-56.523-67.829-56.523
	s-67.829,25.307-67.829,56.523c0,12.231,13.771,20.673,12.602,32.797c-1.879,19.499-24.935,29.343-24.935,48.392
	c0,36.893,35.89,66.801,80.162,66.801s80.162-29.908,80.162-66.801C336.162,347.138,313.104,337.294,311.227,317.795z"/>
<path style="fill:#AF6E05;" d="M311.227,317.795c-1.169-12.124,12.602-20.564,12.602-32.797c0-31.218-30.368-56.523-67.829-56.523
	c-0.193,0-0.381,0.01-0.574,0.012v204.49c0.193,0.002,0.381,0.012,0.574,0.012c44.272,0,80.162-29.908,80.162-66.801
	C336.162,347.138,313.104,337.294,311.227,317.795z"/>
<g>
	<circle style="fill:#7C552A;" cx="256" cy="319.94" r="22.618"/>
	<path style="fill:#7C552A;" d="M245.465,275.849h21.068c3.427,0,6.146-2.884,5.946-6.304L261.944,90.003
		c-0.184-3.148-2.791-5.606-5.946-5.606l0,0c-3.153,0-5.761,2.458-5.946,5.606l-10.535,179.541
		C239.319,272.965,242.04,275.849,245.465,275.849z"/>
</g>
<path style="fill:#603B17;" d="M261.946,90.003c-0.184-3.148-2.793-5.606-5.946-5.606c-0.197,0-0.383,0.036-0.574,0.055v191.398
	h11.109c3.427,0,6.146-2.884,5.946-6.304L261.946,90.003z"/>
<path style="fill:#D48B07;" d="M266.774,109.575h-21.549c-4.046,0-7.327-3.281-7.327-7.327v-39.65c0-4.046,3.281-7.327,7.327-7.327
	h21.549c4.046,0,7.327,3.281,7.327,7.327v39.65C274.101,106.294,270.82,109.575,266.774,109.575z"/>
<path style="fill:#603B17;" d="M256,297.331c-0.195,0-0.381,0.024-0.574,0.029v45.161c0.193,0.005,0.379,0.029,0.574,0.029
	c12.486,0,22.609-10.123,22.609-22.609S268.486,297.331,256,297.331z"/>
<path style="fill:#AF6E05;" d="M274.101,62.598c0-4.046-3.281-7.327-7.327-7.327h-11.348v54.303h11.348
	c4.046,0,7.327-3.281,7.327-7.327V62.598z"/>
<rect x="227.556" y="370.743" style="fill:#7C552A;" width="56.889" height="6.896"/>
<rect x="255.431" y="370.743" style="fill:#603B17;" width="29.018" height="6.896"/>
<g>
</g>
<g>
</g>
<g>
</g>
<g>
</g>
<g>
</g>
<g>
</g>
<g>
</g>
<g>
</g>
<g>
</g>
<g>
</g>
<g>
</g>
<g>
</g>
<g>
</g>
<g>
</g>
<g>
</g>
</svg>
