<?xml version="1.0" encoding="iso-8859-1"?>
<!-- Generator: Adobe Illustrator 16.0.0, SVG Export Plug-In . SVG Version: 6.00 Build 0)  -->
<!DOCTYPE svg PUBLIC "-//W3C//DTD SVG 1.1//EN" "http://www.w3.org/Graphics/SVG/1.1/DTD/svg11.dtd">
<svg version="1.1" id="Layer_1" xmlns="http://www.w3.org/2000/svg" xmlns:xlink="http://www.w3.org/1999/xlink" x="0px" y="0px"
	 width="42px" height="42px" viewBox="0 0 42 42" style="enable-background:new 0 0 42 42;" xml:space="preserve">
<g>
	<g>
		<path style="fill:#8C4F4F;" d="M8.428,21.969l27.533-12.66l3.636,1.736C36.035,4.467,29.07,0,21.063,0C9.432,0,0,9.43,0,21.063
			s9.432,21.063,21.063,21.063c2.806,0,5.484-0.551,7.933-1.546L8.94,34.694L8.428,21.969z"/>
		<path style="fill:#593737;" d="M42.127,21.063c0-3.626-0.917-7.038-2.53-10.018l-3.636-1.736L8.428,21.969L8.94,34.694
			l20.056,5.886C36.697,37.446,42.127,29.89,42.127,21.063z"/>
	</g>
	<g>
		<path style="fill:#F1F0F0;" d="M9.97,34.826l23.276-4.593l0.714-1.312L9.252,33.797L5.624,15.411l27.133-5.354l3.052,15.467
			l0.694-1.276l-2.731-13.849c-0.176-0.886-1.036-1.463-1.923-1.288L5.906,14.23c-0.888,0.175-1.464,1.036-1.29,1.922l3.431,17.386
			C8.223,34.424,9.082,35.001,9.97,34.826z"/>
		<polygon style="fill:#697547;" points="32.757,10.058 5.624,15.411 9.252,33.797 33.96,28.922 35.809,25.524 		"/>
		<g>
			<path style="fill:#D5E0E0;" d="M33.032,25.663l2.494-0.493l0.977-0.922l-0.043-0.216l-2.943,0.33
				c-0.912,0.18-1.505,1.066-1.325,1.978l0.955,3.912l0.1-0.019l0.379-1.566L33.032,25.663z"/>
			<path style="fill:#FAFAFA;" d="M33.364,26.038l2.425-0.479l0.714-1.312l-2.666,0.527c-0.888,0.175-1.464,1.034-1.29,1.921
				l0.699,3.536l0.694-1.276L33.364,26.038z"/>
			<polygon style="fill:#F4F4F6;" points="33.94,28.956 35.789,25.56 33.364,26.038 			"/>
		</g>
		<polygon style="fill:#697547;" points="6.717,20.95 11.922,23.067 15.848,19.16 20.909,21.969 23.128,19.836 29.661,25.28 
			34.071,16.728 32.757,10.058 5.624,15.411 		"/>
		<circle style="fill:#EFCA4D;" cx="19.181" cy="27.633" r="2.419"/>
		<polygon style="fill:#95AB5D;" points="29.661,25.28 23.128,19.836 20.909,21.969 23.103,17.911 		"/>
		<g>
			<path style="fill:#FFFFFF;" d="M13.986,26.728c-0.006,0.152,0.002,0.309,0.034,0.466c0.203,1.028,1.158,1.706,2.137,1.512
				c0.777-0.153,1.332-0.813,1.423-1.595c0.317,0.216,0.709,0.312,1.105,0.233c0.809-0.16,1.33-0.98,1.16-1.834
				c-0.015-0.082-0.04-0.161-0.067-0.238c0.464-0.271,0.724-0.835,0.609-1.416c-0.144-0.727-0.819-1.205-1.508-1.069
				c-0.68,0.134-4.364,0.861-5.126,1.012c-0.765,0.15-1.254,0.924-1.095,1.726C12.792,26.207,13.354,26.689,13.986,26.728z"/>
			<g>
				<path style="fill:#ECF2FA;" d="M13.995,26.493c0.06,0.005,0.114,0.032,0.154,0.079c0.04,0.046,0.062,0.107,0.06,0.169
					c-0.007,0.143,0.004,0.279,0.029,0.409c0.085,0.425,0.315,0.78,0.627,1.021c-0.11-0.549-0.114-1.618,1.317-2.115
					c0,0,0.716-2.926,3.721-2.695c-0.241-0.273-0.608-0.418-0.979-0.345l-5.127,1.011c-0.642,0.127-1.055,0.779-0.921,1.455
					C12.987,26.045,13.446,26.461,13.995,26.493z"/>
				<path style="fill:#FFFFFF;" d="M20.066,23.373c-0.056-0.005-0.108-0.008-0.163-0.013c0.029,0.032,0.055,0.063,0.078,0.099
					L20.066,23.373z"/>
				<path style="fill:#FFFFFF;" d="M14.865,28.171c0.043,0.207,0.1,0.341,0.1,0.341l0.17-0.172
					C15.039,28.293,14.95,28.235,14.865,28.171z"/>
			</g>
		</g>
	</g>
	<g>
		<path style="fill:#FFFFFF;" d="M35.461,9.229l-23.726-0.11l-0.959,1.144l25.185,0.117l-0.089,18.74L8.219,28.991L8.29,13.225
			l-0.934,1.114L7.291,28.454c-0.004,0.903,0.727,1.64,1.628,1.644l26.444,0.123c0.904,0.004,1.639-0.725,1.644-1.628l0.082-17.721
			C37.094,9.97,36.365,9.233,35.461,9.229z"/>
		<polygon style="fill:#4BA2AF;" points="8.219,28.991 35.872,29.12 35.961,10.38 10.776,10.263 8.29,13.225 		"/>
		<g>
			<path style="fill:#D5E0E0;" d="M11.041,13.64l-2.545-0.012l-1.14,0.711v0.222l2.95,0.258c0.932,0.004,1.688-0.745,1.691-1.676
				l-0.161-4.023h-0.102l-0.68,1.459L11.041,13.64z"/>
			<path style="fill:#FAFAFA;" d="M10.789,13.207l-2.471-0.012l-0.962,1.144l2.719,0.013c0.904,0.004,1.64-0.725,1.644-1.627
				l0.017-3.605l-0.934,1.112L10.789,13.207z"/>
			<polygon style="fill:#F4F4F6;" points="10.802,10.231 8.318,13.195 10.789,13.207 			"/>
		</g>
		<polygon style="fill:#B9D17D;" points="35.899,23.474 31.217,20.367 26.595,23.419 22.19,19.663 19.594,21.314 14.269,14.684 
			8.25,22.192 8.219,28.991 35.872,29.12 		"/>
		<circle style="fill:#EFCA4D;" cx="25.007" cy="14.453" r="2.419"/>
		<polygon style="fill:#95AB5D;" points="14.269,14.684 19.594,21.314 22.19,19.663 19.236,23.206 		"/>
		<g>
			<path style="fill:#FFFFFF;" d="M29.919,16.372c0.036-0.149,0.058-0.305,0.06-0.464c0.004-1.049-0.799-1.901-1.794-1.906
				c-0.794-0.004-1.47,0.534-1.713,1.282c-0.267-0.275-0.633-0.446-1.035-0.447c-0.826-0.005-1.499,0.696-1.502,1.565
				c-0.002,0.085,0.007,0.166,0.02,0.248c-0.509,0.175-0.877,0.674-0.879,1.268c-0.004,0.741,0.563,1.343,1.267,1.347
				c0.692,0.003,4.449,0.021,5.226,0.024c0.777,0.003,1.41-0.657,1.415-1.476C30.986,17.118,30.531,16.534,29.919,16.372z"/>
			<g>
				<path style="fill:#ECF2FA;" d="M29.864,16.599c-0.058-0.016-0.106-0.055-0.136-0.107c-0.031-0.054-0.04-0.118-0.025-0.178
					c0.034-0.139,0.051-0.275,0.053-0.407c0-0.433-0.156-0.826-0.413-1.124c0,0.561-0.207,1.608-1.711,1.813
					c0,0-1.28,2.726-4.18,1.903c0.182,0.317,0.513,0.531,0.892,0.533l5.224,0.023c0.654,0.003,1.19-0.554,1.192-1.242
					C30.762,17.237,30.394,16.739,29.864,16.599z"/>
				<path style="fill:#FFFFFF;" d="M23.296,18.453c0.053,0.017,0.104,0.03,0.156,0.045c-0.021-0.036-0.04-0.073-0.058-0.111
					L23.296,18.453z"/>
				<path style="fill:#FFFFFF;" d="M29.343,14.782c0-0.212-0.029-0.354-0.029-0.354l-0.201,0.135
					C29.197,14.628,29.273,14.702,29.343,14.782z"/>
			</g>
		</g>
	</g>
</g>
</svg>
